<?xml version="1.0" encoding="UTF-8"?>
<svg id="Layer_1" xmlns="http://www.w3.org/2000/svg" version="1.1" viewBox="0 0 1106 1106">
  <!-- Generator: Adobe Illustrator 29.1.0, SVG Export Plug-In . SVG Version: 2.1.0 Build 142)  -->
  <defs>
    <style>
      .st0, .st1 {
        fill: #231f20;
      }

      .st2 {
        fill: #025ea7;
      }

      .st2, .st1, .st3, .st4 {
        stroke: #231f20;
        stroke-miterlimit: 10;
        stroke-width: 13.9px;
      }

      .st1 {
        stroke-linecap: round;
      }

      .st3, .st5 {
        fill: #d6332c;
      }

      .st4 {
        fill: #0cafdc;
      }
    </style>
  </defs>
  <g>
    <path class="st1" d="M774.3,501.4c40.5-33.7,102-136.7,102,47.9h0c0,98.7-97.7,105.6-90.7,143.8l12,48c.5,1.9-.6,3.8-2.5,4.4l-25.9,8.2c-1.5.5-3.1,0-4-1.3-79.9-103.9-110.4-80.7-161.7-111.7l170.8-139.3Z"/>
    <path class="st3" d="M454.7,314.3v242h-143.9c-78.5,0-142.2-53.8-142.2-120.1v-104.7c0-9.5,9.6-17.3,21.5-17.3h264.6Z"/>
    <rect class="st4" x="598.4" y="489.5" width="143.4" height="144.9"/>
    <path class="st2" d="M885.6,343.9v145.6c0,26.1-7,50.6-19.2,71.8-25,43.5-72.2,73-126.3,73V199.1c40.1,0,76.5,16.2,102.9,42.4,26.3,26.2,42.6,62.5,42.6,102.4Z"/>
    <path class="st4" d="M740.1,199v145.2H168.4v-1c0-77.8,65.1-144.2,142.6-144.2h429Z"/>
    <rect class="st2" x="455" y="344.6" width="143.4" height="144.9"/>
    <ellipse class="st2" cx="981.2" cy="417.1" rx="88.4" ry="89.3"/>
    <ellipse class="st3" cx="117.5" cy="410.9" rx="44.2" ry="44.7"/>
    <ellipse class="st4" cx="437.5" cy="102.3" rx="88.4" ry="89.3"/>
    <rect class="st3" x="598.4" y="344.6" width="141.8" height="144.9"/>
  </g>
  <path class="st0" d="M322.4,705.3l-69.1-.7h-.3c-3.7,0-6.5,1-8.4,2.9-2.7,2.5-4.1,6.9-4.1,12.6l-3.1,356.5c-.1,10.5,4.1,15.8,12.5,15.9l31.1.4c3.8-.3,6.6-1,8.7-2.9,2.5-2.7,3.9-7,4.1-12.7l1-127.2,25.5.3c30.3.8,52.8-6.6,67-20.4,13.1-12.9,20-32.6,20.3-58.6l.7-85.1c.4-54.6-26.7-80.3-85.8-81ZM351.1,870.7c-.1,9.9-3.2,18.3-9.1,24.1-5.3,5.2-12.5,7.8-20.8,7.8h-.4l-25.5-.3,1.3-149.4,25.5.3c18.3.3,30.1,13,29.8,32.6l-.7,84.9Z"/>
  <path class="st0" d="M482.5,703h-31.1c-8.4,0-12.7,5.3-12.7,15.8v358.3c0,10.5,4.2,15.9,12.7,15.9h31.1c3.1,0,12.7,0,12.7-15.9v-358.3c0-15.8-9.6-15.8-12.7-15.8Z"/>
  <path class="st0" d="M699.7,783.5c-.1-26-7-45.9-20.1-58.8-13.9-13.6-35.7-20.4-65-20.4h-2l-69.1.7c-8.4.1-12.7,5.5-12.5,15.9l2.8,356.5c0,5.7,1.4,10.1,4.1,12.6,2,2.1,5.2,3.4,8.7,2.9l31-.3c8.4,0,12.7-5.5,12.5-15.8l-1-127.2,25.5-.3c59.1-.6,86.3-26.3,85.8-81l-.7-84.9ZM614.3,901.5l-25.5.3-1.3-149.4,25.5-.3c8.3,0,15.9,2.7,21.3,8,5.9,5.7,9,14,9.1,23.9l.7,85.1c.1,19.4-11.5,32.3-29.8,32.5Z"/>
  <g>
    <polygon class="st5" points="90.9 1061.8 116.5 1062.2 117 1090.1 123.5 1090.2 123.8 1062.2 151.5 1062.3 143.5 1052.1 168.6 1034.7 160.3 1032.7 167.1 1016.9 150.8 1022.6 149.4 1014.4 133.3 1029.5 143.7 998.7 133.5 1002.6 121.9 981.1 121.9 981.1 121.9 981.1 110 1002.5 99.8 998.3 109.8 1029.4 93.8 1013.9 92.3 1022.2 76.2 1016.1 82.7 1032.1 74.3 1033.9 99.1 1051.7 90.9 1061.8"/>
    <path class="st0" d="M123.5,1092.2h-6.5c-1.1,0-2-.9-2-2l-.5-26-23.6-.3c-.8,0-1.5-.5-1.8-1.1-.3-.7-.2-1.5.3-2.1l6.9-8.5-23.1-16.6c-.6-.5-.9-1.3-.8-2s.8-1.4,1.5-1.5l6.1-1.3-5.6-13.7c-.3-.7-.1-1.6.4-2.1.6-.6,1.4-.8,2.1-.5l13.9,5.2,1.1-5.9c.1-.7.7-1.3,1.4-1.5.7-.2,1.5,0,2,.5l10.2,9.9-7.5-23.5c-.2-.7,0-1.5.5-2.1.6-.5,1.4-.7,2.1-.4l8.5,3.5,11-19.6c.2-.6.7-1,1.3-1.1.9-.2,1.8.2,2.2,1l10.7,20,8.6-3.3c.7-.3,1.5-.1,2.1.4.6.5.8,1.3.5,2.1l-7.9,23.4,10.4-9.7c.5-.5,1.3-.7,2-.4.7.2,1.2.8,1.3,1.6l1,5.9,14-4.9c.7-.3,1.6,0,2.1.5.5.6.7,1.4.4,2.1l-5.9,13.6,6,1.4c.8.2,1.4.8,1.5,1.6.1.8-.2,1.6-.8,2l-23.4,16.2,6.7,8.6c.5.6.6,1.4.2,2.1-.3.7-1,1.1-1.8,1.1h0l-25.7-.2-.3,26c0,1.1-.9,2-2,2ZM119,1088.1h2.5s.3-26,.3-26c0-1.1.9-2,2-2s0,0,0,0h23.6c0,.1-5.5-6.9-5.5-6.9-.3-.4-.5-1-.4-1.5,0-.5.4-1,.8-1.3l21.4-14.9-4-.9c-.6-.1-1.1-.5-1.3-1-.3-.5-.3-1.1,0-1.7l5-11.6-12,4.2c-.6.2-1.2.1-1.7-.2-.5-.3-.9-.8-1-1.4l-.8-4.6-13.5,12.6c-.7.6-1.7.7-2.4.2-.8-.5-1.1-1.4-.8-2.3l9.1-26.8-6.2,2.4c-.9.4-2,0-2.5-.9l-9.8-18.3-10.2,18.2c-.5.9-1.6,1.3-2.5.9l-6.2-2.5,8.6,27c.3.9,0,1.8-.8,2.3-.8.5-1.8.4-2.4-.3l-13.3-12.8-.8,4.6c-.1.6-.5,1.1-1,1.4-.5.3-1.1.3-1.7.1l-11.9-4.4,4.8,11.7c.2.5.2,1.2,0,1.7-.3.5-.8.9-1.3,1l-4,.9,21.2,15.2c.4.3.7.8.8,1.4s0,1.1-.4,1.5l-5.6,6.9,21.5.3c1.1,0,1.9.9,2,2l.5,26Z"/>
  </g>
  <path class="st0" d="M167,701.9h31.4c8.4,0,12.8-5.1,12.8-15.3v-51.4c0-50.6-28.6-75.3-87.4-75.3s-87.4,24.7-87.4,75.3v211.7c0,50.6,28.6,75.3,87.4,75.3s87.4-24.7,87.4-75.3v-51.5c0-10.1-4.4-15.3-12.8-15.3h-31.4c-8.5,0-12.8,5.1-12.8,15.3v51.5c0,17.9-11.9,29.4-30.4,29.4s-30.4-11.6-30.4-29.4v-211.7c0-18,11.9-29.6,30.4-29.6s30.4,11.6,30.4,29.6v51.4c0,10.1,4.3,15.3,12.8,15.3Z"/>
</svg>